<svg xmlns="http://www.w3.org/2000/svg" viewBox="0 0 345 535"><style>:root{font:14px sans-serif,Droid Sans Fallback;color-scheme:dark light;--grad-start:canvas;--grad-end:#90ee90;--shadow-color:black}@media (prefers-color-scheme:dark){:root{--grad-start:#338833;--grad-end:canvas;--shadow-color:#999}}polygon.arrow,text{fill:canvastext}.code{font-family:monospace}.box{stroke:canvastext;fill:url(#grad);filter:url(#dropshadow)}polyline.arrow{fill:transparent;stroke:canvastext}</style><filter id="dropshadow" height="130%"><feGaussianBlur in="SourceAlpha" stdDeviation="3"/><feOffset dx="2" dy="2" result="offsetBlur"/><feFlood flood-color="var(--shadow-color)" flood-opacity="1"/><feComposite in2="offsetBlur" operator="in"/><feComposite in2="SourceGraphic" operator="out"/><feMerge><feMergeNode/><feMergeNode in="SourceGraphic"/></feMerge></filter><linearGradient id="grad" x1=".5" x2=".5" y1="0" y2="1" gradientUnits="objectBoundingBox"><stop offset="5%" stop-color="var(--grad-start)"/><stop offset="95%" stop-color="var(--grad-end)"/></linearGradient><polygon points="40 10 140 10 110 60 10 60" class="box"/><text x="75" y="35" text-anchor="middle">Network</text><polyline points="75 60 75 100" class="arrow"/><polygon points="70 85 80 85 75 100" class="arrow"/><rect width="100" height="50" x="25" y="100" class="box"/><text x="75" y="120" text-anchor="middle">Byte Stream</text><text x="75" y="135" text-anchor="middle">Decoder</text><polyline points="75 150 75 190" class="arrow"/><polygon points="70 175 80 175 75 190" class="arrow"/><rect width="100" height="50" x="25" y="190" class="box"/><text x="75" y="210" text-anchor="middle">Input Stream</text><text x="75" y="225" text-anchor="middle">Preprocessor</text><polyline points="75 240 75 280" class="arrow"/><polygon points="70 265 80 265 75 280" class="arrow"/><rect width="100" height="50" x="25" y="280" class="box"/><text x="75" y="305" text-anchor="middle">Tokenizer</text><polyline points="75 330 75 370" class="arrow"/><polygon points="70 355 80 355 75 370" class="arrow"/><rect width="100" height="50" x="25" y="370" class="box"/><text x="75" y="390" text-anchor="middle">Tree</text><text x="75" y="405" text-anchor="middle">Construction</text><polyline points="75 420 75 460" class="arrow"/><polygon points="70 445 80 445 75 460" class="arrow"/><polyline points="125 395 225 395" class="arrow"/><polygon points="210 390 210 400 225 395" class="arrow"/><path d="M 25,520 L 25,460 L 125,460 L 125,510 C 70,510 80,530 25,520" class="box"/><text x="75" y="495" text-anchor="middle">DOM</text><polyline stroke-dasharray="6" points="125 490 275 490 275 420" class="arrow"/><rect width="100" height="50" x="225" y="370" class="box"/><text x="275" y="390" text-anchor="middle">Script</text><text x="275" y="405" text-anchor="middle">Execution</text><polyline points="275 370 275 215 125 215" class="arrow"/><polygon points="125 215 135 210 135 220" class="arrow"/><text x="270" y="230" class="code" text-anchor="end">document.write()</text></svg>