<svg xmlns="http://www.w3.org/2000/svg" viewBox="0 0 330 100"><style><![CDATA[:root{color-scheme:dark light;--text-gray:gray;--stroke-gray:lightgray;--grad-start:canvas;--grad-end:var(--stroke-gray)}@media (prefers-color-scheme:dark){:root{--text-gray:lightgray;--stroke-gray:gray;--grad-start:#888;--grad-end:#555}}text{dominant-baseline:central;font-size:13px;font-family:sans-serif;fill:canvastext}.labels>text{text-anchor:end;fill:var(--text-gray);font-size:11px}.button>rect{fill:url(#button-gradient);stroke:var(--grad-end)}.button>text{text-anchor:middle}]]></style><defs><linearGradient id="button-gradient" x1="0" x2="0" y1="0" y2="1"><stop offset="0%" stop-color="var(--grad-start)"/><stop offset="100%" stop-color="var(--grad-end)"/></linearGradient></defs><g class="button" transform="translate(5,5)"><rect width="40" height="20" x="0" y="0"/><text x="20" y="10">Send</text></g><g class="button" transform="translate(60,5)"><rect width="70" height="20" x="0" y="0"/><text x="35" y="10">Save Now</text></g><g class="button" transform="translate(145,5)"><rect width="55" height="20" x="0" y="0"/><text x="27.5" y="10">Discard</text></g><text x="12" y="45">To:</text><g transform="translate(35,35)"><rect width="290" height="20" x="0" y="0" fill="canvas" stroke="var(--stroke-gray)"/><rect width="290" height="40" x="0" y="20" fill="canvas" stroke="var(--stroke-gray)"/><text x="7" y="10">s<tspan dx="-1.5">|</tspan></text><text x="276" y="10" fill="var(--text-gray)">▼</text><g><text x="0" y="0" transform="translate(7,30)">spider@parker.example.net</text><text x="0" y="20" transform="translate(7,30)">scarlet@avengers.example.net</text></g><g class="labels"><text x="0" y="0" transform="translate(285,30)">Spider-Man</text><text x="0" y="20" transform="translate(285,30)">Scarlet Witch</text></g></g></svg>