<svg xmlns="http://www.w3.org/2000/svg" viewBox="0 0 480 150"><style><![CDATA[:root{color-scheme:dark light;--text-gray:gray;--stroke-gray:lightgray;--scroll-track:#eee;--scroll-thumb:#bbb}@media (prefers-color-scheme:dark){:root{--text-gray:lightgray;--stroke-gray:gray;--scroll-track:#333;--scroll-thumb:#666}}text{dominant-baseline:central;font-size:13px;font-family:sans-serif;fill:canvastext}.labels>text{text-anchor:end;fill:var(--text-gray);font-size:11px}]]></style><rect width="470" height="20" x="5" y="5" fill="canvas" stroke="var(--stroke-gray)"/><rect width="470" height="120" x="5" y="25" fill="canvas" stroke="var(--stroke-gray)"/><path fill="canvas" stroke="var(--text-gray)" stroke-linecap="round" stroke-linejoin="bevel" d="M0,0 H5 L8,3 H5 V0 L8,3 V11 H0 V0" transform="translate(11,10)"/><text x="30" y="15">spec.w<tspan dx="-1.5">|</tspan></text><text x="461" y="15" fill="var(--text-gray)">▼</text><g><text x="0" y="0" transform="translate(17,35)">https://html.spec.whatwg.org/</text><text x="0" y="20" transform="translate(17,35)">https://mediasession.spec.whatwg.org/</text><text x="0" y="40" transform="translate(17,35)">https://fullscreen.spec.whatwg.org/</text><text x="0" y="60" transform="translate(17,35)">https://dom.spec.whatwg.org/</text><text x="0" y="80" transform="translate(17,35)">https://url.spec.whatwg.org/#url-parsing</text><text x="0" y="100" transform="translate(17,35)">https://streams.spec.whatwg.org/</text></g><g class="labels"><text x="0" y="0" transform="translate(450,35)">HTML</text><text x="0" y="20" transform="translate(450,35)">Media Session</text><text x="0" y="40" transform="translate(450,35)">Fullscreen</text><text x="0" y="60" transform="translate(450,35)">DOM</text></g><rect width="12.5" height="119" x="462" y="25.5" fill="var(--scroll-track)"/><rect width="8.5" height="40" x="464" y="27.5" fill="var(--scroll-thumb)"/></svg>